<svg width="250" height="100" viewBox="0 0 250 100" fill="none" xmlns="http://www.w3.org/2000/svg">
<rect width="250" height="100" rx="4" fill="white"/>
<path d="M107.984 45.016H103.792L103.12 47H100.256L104.32 35.768H107.488L111.552 47H108.656L107.984 45.016ZM107.28 42.904L105.888 38.792L104.512 42.904H107.28ZM118.069 47L116.357 44.52L114.917 47H111.957L114.901 42.44L111.877 38.072H114.949L116.661 40.536L118.101 38.072H121.061L118.069 42.568L121.141 47H118.069ZM123.571 37.144C123.091 37.144 122.696 37.0053 122.387 36.728C122.088 36.44 121.939 36.088 121.939 35.672C121.939 35.2453 122.088 34.8933 122.387 34.616C122.696 34.328 123.091 34.184 123.571 34.184C124.04 34.184 124.424 34.328 124.723 34.616C125.032 34.8933 125.187 35.2453 125.187 35.672C125.187 36.088 125.032 36.44 124.723 36.728C124.424 37.0053 124.04 37.144 123.571 37.144ZM124.931 38.072V47H122.195V38.072H124.931ZM135.33 42.392C135.33 42.648 135.314 42.9147 135.282 43.192H129.09C129.133 43.7467 129.309 44.1733 129.618 44.472C129.938 44.76 130.327 44.904 130.786 44.904C131.469 44.904 131.943 44.616 132.21 44.04H135.122C134.973 44.6267 134.701 45.1547 134.306 45.624C133.922 46.0933 133.437 46.4613 132.85 46.728C132.263 46.9947 131.607 47.128 130.882 47.128C130.007 47.128 129.229 46.9413 128.546 46.568C127.863 46.1947 127.33 45.6613 126.946 44.968C126.562 44.2747 126.37 43.464 126.37 42.536C126.37 41.608 126.557 40.7973 126.93 40.104C127.314 39.4107 127.847 38.8773 128.53 38.504C129.213 38.1307 129.997 37.944 130.882 37.944C131.746 37.944 132.514 38.1253 133.186 38.488C133.858 38.8507 134.381 39.368 134.754 40.04C135.138 40.712 135.33 41.496 135.33 42.392ZM132.53 41.672C132.53 41.2027 132.37 40.8293 132.05 40.552C131.73 40.2747 131.33 40.136 130.85 40.136C130.391 40.136 130.002 40.2693 129.682 40.536C129.373 40.8027 129.181 41.1813 129.106 41.672H132.53ZM142.9 35.768V47H140.164V35.768H142.9ZM150.323 37.976C151.368 37.976 152.2 38.3173 152.819 39C153.448 39.672 153.763 40.6 153.763 41.784V47H151.043V42.152C151.043 41.5547 150.888 41.0907 150.579 40.76C150.269 40.4293 149.853 40.264 149.331 40.264C148.808 40.264 148.392 40.4293 148.083 40.76C147.773 41.0907 147.619 41.5547 147.619 42.152V47H144.883V38.072H147.619V39.256C147.896 38.8613 148.269 38.552 148.739 38.328C149.208 38.0933 149.736 37.976 150.323 37.976ZM160.144 40.344H158.672V47H155.936V40.344H154.944V38.072H155.936V37.816C155.936 36.7173 156.251 35.8853 156.88 35.32C157.509 34.744 158.432 34.456 159.648 34.456C159.851 34.456 160 34.4613 160.096 34.472V36.792C159.573 36.76 159.205 36.8347 158.992 37.016C158.779 37.1973 158.672 37.5227 158.672 37.992V38.072H160.144V40.344ZM162.806 37.144C162.326 37.144 161.931 37.0053 161.622 36.728C161.323 36.44 161.174 36.088 161.174 35.672C161.174 35.2453 161.323 34.8933 161.622 34.616C161.931 34.328 162.326 34.184 162.806 34.184C163.275 34.184 163.659 34.328 163.958 34.616C164.267 34.8933 164.422 35.2453 164.422 35.672C164.422 36.088 164.267 36.44 163.958 36.728C163.659 37.0053 163.275 37.144 162.806 37.144ZM164.166 38.072V47H161.43V38.072H164.166ZM171.588 37.976C172.634 37.976 173.466 38.3173 174.084 39C174.714 39.672 175.028 40.6 175.028 41.784V47H172.308V42.152C172.308 41.5547 172.154 41.0907 171.844 40.76C171.535 40.4293 171.119 40.264 170.596 40.264C170.074 40.264 169.658 40.4293 169.348 40.76C169.039 41.0907 168.884 41.5547 168.884 42.152V47H166.148V38.072H168.884V39.256C169.162 38.8613 169.535 38.552 170.004 38.328C170.474 38.0933 171.002 37.976 171.588 37.976ZM178.306 37.144C177.826 37.144 177.431 37.0053 177.122 36.728C176.823 36.44 176.674 36.088 176.674 35.672C176.674 35.2453 176.823 34.8933 177.122 34.616C177.431 34.328 177.826 34.184 178.306 34.184C178.775 34.184 179.159 34.328 179.458 34.616C179.767 34.8933 179.922 35.2453 179.922 35.672C179.922 36.088 179.767 36.44 179.458 36.728C179.159 37.0053 178.775 37.144 178.306 37.144ZM179.666 38.072V47H176.93V38.072H179.666ZM186.624 44.68V47H185.232C184.24 47 183.467 46.76 182.912 46.28C182.358 45.7893 182.08 44.9947 182.08 43.896V40.344H180.992V38.072H182.08V35.896H184.816V38.072H186.608V40.344H184.816V43.928C184.816 44.1947 184.88 44.3867 185.008 44.504C185.136 44.6213 185.35 44.68 185.648 44.68H186.624ZM197.268 38.072L191.668 51.24H188.724L190.772 46.696L187.14 38.072H190.196L192.26 43.656L194.308 38.072H197.268Z" fill="#25262E"/>
<path d="M106.084 58.176L102.748 66H101.644L105.028 58.284H100.396V57.348H106.084V58.176ZM107.271 59.508C107.327 58.772 107.611 58.196 108.123 57.78C108.635 57.364 109.299 57.156 110.115 57.156C110.659 57.156 111.127 57.256 111.519 57.456C111.919 57.648 112.219 57.912 112.419 58.248C112.627 58.584 112.731 58.964 112.731 59.388C112.731 59.884 112.587 60.312 112.299 60.672C112.019 61.032 111.651 61.264 111.195 61.368V61.428C111.715 61.556 112.127 61.808 112.431 62.184C112.735 62.56 112.887 63.052 112.887 63.66C112.887 64.116 112.783 64.528 112.575 64.896C112.367 65.256 112.055 65.54 111.639 65.748C111.223 65.956 110.723 66.06 110.139 66.06C109.291 66.06 108.595 65.84 108.051 65.4C107.507 64.952 107.203 64.32 107.139 63.504H108.195C108.251 63.984 108.447 64.376 108.783 64.68C109.119 64.984 109.567 65.136 110.127 65.136C110.687 65.136 111.111 64.992 111.399 64.704C111.695 64.408 111.843 64.028 111.843 63.564C111.843 62.964 111.643 62.532 111.243 62.268C110.843 62.004 110.239 61.872 109.431 61.872H109.155V60.96H109.443C110.179 60.952 110.735 60.832 111.111 60.6C111.487 60.36 111.675 59.992 111.675 59.496C111.675 59.072 111.535 58.732 111.255 58.476C110.983 58.22 110.591 58.092 110.079 58.092C109.583 58.092 109.183 58.22 108.879 58.476C108.575 58.732 108.395 59.076 108.339 59.508H107.271ZM114.361 61.572C114.361 60.196 114.585 59.124 115.033 58.356C115.481 57.58 116.265 57.192 117.385 57.192C118.497 57.192 119.277 57.58 119.725 58.356C120.173 59.124 120.397 60.196 120.397 61.572C120.397 62.972 120.173 64.06 119.725 64.836C119.277 65.612 118.497 66 117.385 66C116.265 66 115.481 65.612 115.033 64.836C114.585 64.06 114.361 62.972 114.361 61.572ZM119.317 61.572C119.317 60.876 119.269 60.288 119.173 59.808C119.085 59.32 118.897 58.928 118.609 58.632C118.329 58.336 117.921 58.188 117.385 58.188C116.841 58.188 116.425 58.336 116.137 58.632C115.857 58.928 115.669 59.32 115.573 59.808C115.485 60.288 115.441 60.876 115.441 61.572C115.441 62.292 115.485 62.896 115.573 63.384C115.669 63.872 115.857 64.264 116.137 64.56C116.425 64.856 116.841 65.004 117.385 65.004C117.921 65.004 118.329 64.856 118.609 64.56C118.897 64.264 119.085 63.872 119.173 63.384C119.269 62.896 119.317 62.292 119.317 61.572ZM123.48 61.488C123.032 61.312 122.688 61.056 122.448 60.72C122.208 60.384 122.088 59.976 122.088 59.496C122.088 59.064 122.196 58.676 122.412 58.332C122.628 57.98 122.948 57.704 123.372 57.504C123.804 57.296 124.324 57.192 124.932 57.192C125.54 57.192 126.056 57.296 126.48 57.504C126.912 57.704 127.236 57.98 127.452 58.332C127.676 58.676 127.788 59.064 127.788 59.496C127.788 59.96 127.664 60.368 127.416 60.72C127.168 61.064 126.828 61.32 126.396 61.488C126.892 61.64 127.284 61.908 127.572 62.292C127.868 62.668 128.016 63.124 128.016 63.66C128.016 64.18 127.888 64.636 127.632 65.028C127.376 65.412 127.012 65.712 126.54 65.928C126.076 66.136 125.54 66.24 124.932 66.24C124.324 66.24 123.788 66.136 123.324 65.928C122.868 65.712 122.512 65.412 122.256 65.028C122 64.636 121.872 64.18 121.872 63.66C121.872 63.124 122.016 62.664 122.304 62.28C122.592 61.896 122.984 61.632 123.48 61.488ZM126.732 59.628C126.732 59.14 126.572 58.764 126.252 58.5C125.932 58.236 125.492 58.104 124.932 58.104C124.38 58.104 123.944 58.236 123.624 58.5C123.304 58.764 123.144 59.144 123.144 59.64C123.144 60.088 123.308 60.448 123.636 60.72C123.972 60.992 124.404 61.128 124.932 61.128C125.468 61.128 125.9 60.992 126.228 60.72C126.564 60.44 126.732 60.076 126.732 59.628ZM124.932 61.968C124.34 61.968 123.856 62.108 123.48 62.388C123.104 62.66 122.916 63.072 122.916 63.624C122.916 64.136 123.096 64.548 123.456 64.86C123.824 65.172 124.316 65.328 124.932 65.328C125.548 65.328 126.036 65.172 126.396 64.86C126.756 64.548 126.936 64.136 126.936 63.624C126.936 63.088 126.752 62.68 126.384 62.4C126.016 62.112 125.532 61.968 124.932 61.968ZM129.995 66.072C129.787 66.072 129.611 66 129.467 65.856C129.323 65.712 129.251 65.536 129.251 65.328C129.251 65.12 129.323 64.944 129.467 64.8C129.611 64.656 129.787 64.584 129.995 64.584C130.195 64.584 130.363 64.656 130.499 64.8C130.643 64.944 130.715 65.12 130.715 65.328C130.715 65.536 130.643 65.712 130.499 65.856C130.363 66 130.195 66.072 129.995 66.072ZM137.518 58.272H133.306V61.008C133.49 60.752 133.762 60.544 134.122 60.384C134.482 60.216 134.87 60.132 135.286 60.132C135.95 60.132 136.49 60.272 136.906 60.552C137.322 60.824 137.618 61.18 137.794 61.62C137.978 62.052 138.07 62.512 138.07 63C138.07 63.576 137.962 64.092 137.746 64.548C137.53 65.004 137.198 65.364 136.75 65.628C136.31 65.892 135.762 66.024 135.106 66.024C134.266 66.024 133.586 65.808 133.066 65.376C132.546 64.944 132.23 64.368 132.118 63.648H133.186C133.29 64.104 133.51 64.46 133.846 64.716C134.182 64.972 134.606 65.1 135.118 65.1C135.75 65.1 136.226 64.912 136.546 64.536C136.866 64.152 137.026 63.648 137.026 63.024C137.026 62.4 136.866 61.92 136.546 61.584C136.226 61.24 135.754 61.068 135.13 61.068C134.706 61.068 134.334 61.172 134.014 61.38C133.702 61.58 133.474 61.856 133.33 62.208H132.298V57.312H137.518V58.272ZM148.733 59.424V66H147.641V65.028C147.433 65.364 147.141 65.628 146.765 65.82C146.397 66.004 145.989 66.096 145.541 66.096C145.029 66.096 144.569 65.992 144.161 65.784C143.753 65.568 143.429 65.248 143.189 64.824C142.957 64.4 142.841 63.884 142.841 63.276V59.424H143.921V63.132C143.921 63.78 144.085 64.28 144.413 64.632C144.741 64.976 145.189 65.148 145.757 65.148C146.341 65.148 146.801 64.968 147.137 64.608C147.473 64.248 147.641 63.724 147.641 63.036V59.424H148.733ZM152.904 66.108C152.4 66.108 151.948 66.024 151.548 65.856C151.148 65.68 150.832 65.44 150.6 65.136C150.368 64.824 150.24 64.468 150.216 64.068H151.344C151.376 64.396 151.528 64.664 151.8 64.872C152.08 65.08 152.444 65.184 152.892 65.184C153.308 65.184 153.636 65.092 153.876 64.908C154.116 64.724 154.236 64.492 154.236 64.212C154.236 63.924 154.108 63.712 153.852 63.576C153.596 63.432 153.2 63.292 152.664 63.156C152.176 63.028 151.776 62.9 151.464 62.772C151.16 62.636 150.896 62.44 150.672 62.184C150.456 61.92 150.348 61.576 150.348 61.152C150.348 60.816 150.448 60.508 150.648 60.228C150.848 59.948 151.132 59.728 151.5 59.568C151.868 59.4 152.288 59.316 152.76 59.316C153.488 59.316 154.076 59.5 154.524 59.868C154.972 60.236 155.212 60.74 155.244 61.38H154.152C154.128 61.036 153.988 60.76 153.732 60.552C153.484 60.344 153.148 60.24 152.724 60.24C152.332 60.24 152.02 60.324 151.788 60.492C151.556 60.66 151.44 60.88 151.44 61.152C151.44 61.368 151.508 61.548 151.644 61.692C151.788 61.828 151.964 61.94 152.172 62.028C152.388 62.108 152.684 62.2 153.06 62.304C153.532 62.432 153.916 62.56 154.212 62.688C154.508 62.808 154.76 62.992 154.968 63.24C155.184 63.488 155.296 63.812 155.304 64.212C155.304 64.572 155.204 64.896 155.004 65.184C154.804 65.472 154.52 65.7 154.152 65.868C153.792 66.028 153.376 66.108 152.904 66.108ZM156.438 62.688C156.438 62.016 156.574 61.428 156.846 60.924C157.118 60.412 157.49 60.016 157.962 59.736C158.442 59.456 158.978 59.316 159.57 59.316C160.082 59.316 160.558 59.436 160.998 59.676C161.438 59.908 161.774 60.216 162.006 60.6V57.12H163.11V66H162.006V64.764C161.79 65.156 161.47 65.48 161.046 65.736C160.622 65.984 160.126 66.108 159.558 66.108C158.974 66.108 158.442 65.964 157.962 65.676C157.49 65.388 157.118 64.984 156.846 64.464C156.574 63.944 156.438 63.352 156.438 62.688ZM162.006 62.7C162.006 62.204 161.906 61.772 161.706 61.404C161.506 61.036 161.234 60.756 160.89 60.564C160.554 60.364 160.182 60.264 159.774 60.264C159.366 60.264 158.994 60.36 158.658 60.552C158.322 60.744 158.054 61.024 157.854 61.392C157.654 61.76 157.554 62.192 157.554 62.688C157.554 63.192 157.654 63.632 157.854 64.008C158.054 64.376 158.322 64.66 158.658 64.86C158.994 65.052 159.366 65.148 159.774 65.148C160.182 65.148 160.554 65.052 160.89 64.86C161.234 64.66 161.506 64.376 161.706 64.008C161.906 63.632 162.006 63.196 162.006 62.7Z" fill="#757575"/>
<rect x="216" y="10" width="24" height="16" rx="2" fill="#1C214D"/>
<path d="M224.265 19.864H221.937L221.537 21H220.585L222.577 15.432H223.633L225.625 21H224.665L224.265 19.864ZM224.009 19.12L223.105 16.536L222.193 19.12H224.009ZM229.043 18.224L230.771 21H229.747L228.491 18.984L227.315 21H226.299L228.027 18.224L226.291 15.44H227.315L228.579 17.472L229.763 15.44H230.779L229.043 18.224ZM233.604 21.056C233.231 21.056 232.895 20.992 232.596 20.864C232.297 20.7307 232.063 20.544 231.892 20.304C231.721 20.064 231.636 19.784 231.636 19.464H232.612C232.633 19.704 232.727 19.9013 232.892 20.056C233.063 20.2107 233.3 20.288 233.604 20.288C233.919 20.288 234.164 20.2133 234.34 20.064C234.516 19.9093 234.604 19.712 234.604 19.472C234.604 19.2853 234.548 19.1333 234.436 19.016C234.329 18.8987 234.193 18.808 234.028 18.744C233.868 18.68 233.644 18.6107 233.356 18.536C232.993 18.44 232.697 18.344 232.468 18.248C232.244 18.1467 232.052 17.992 231.892 17.784C231.732 17.576 231.652 17.2987 231.652 16.952C231.652 16.632 231.732 16.352 231.892 16.112C232.052 15.872 232.276 15.688 232.564 15.56C232.852 15.432 233.185 15.368 233.564 15.368C234.103 15.368 234.543 15.504 234.884 15.776C235.231 16.0427 235.423 16.4107 235.46 16.88H234.452C234.436 16.6773 234.34 16.504 234.164 16.36C233.988 16.216 233.756 16.144 233.468 16.144C233.207 16.144 232.993 16.2107 232.828 16.344C232.663 16.4773 232.58 16.6693 232.58 16.92C232.58 17.0907 232.631 17.232 232.732 17.344C232.839 17.4507 232.972 17.536 233.132 17.6C233.292 17.664 233.511 17.7333 233.788 17.808C234.156 17.9093 234.455 18.0107 234.684 18.112C234.919 18.2133 235.116 18.3707 235.276 18.584C235.441 18.792 235.524 19.072 235.524 19.424C235.524 19.7067 235.447 19.9733 235.292 20.224C235.143 20.4747 234.921 20.6773 234.628 20.832C234.34 20.9813 233.999 21.056 233.604 21.056Z" fill="white"/>
<path fill-rule="evenodd" clip-rule="evenodd" d="M50 20C66.566 20 80 33.434 80 50C80 66.566 66.566 80 50 80C33.434 80 20 66.566 20 50C20 33.434 33.434 20 50 20V20Z" fill="#0055D5"/>
<path fill-rule="evenodd" clip-rule="evenodd" d="M36.32 39.848C36.32 39.848 33.092 37.268 32.87 43.64C32.648 48.578 32.654 58.166 34.94 62.696C35.906 64.4 37.196 63.878 39.596 62.18C41.684 60.638 49.238 53.678 52.436 50.624C55.634 47.57 62.12 38.81 63.47 44.762C64.004 47.264 64.664 49.388 64.16 54.938C64.004 56.648 63.272 57.944 59.936 55.628C57.416 54.008 55.022 52.268 55.022 52.268C55.022 52.268 54.56 51.44 53.468 52.784C52.61 53.858 52.178 54.122 53.552 54.938C54.932 55.754 61.91 60.566 64.586 61.316C66.794 61.958 68.054 61.946 68.12 57.608C68.108 54.164 67.91 44.306 66.656 40.106C65.708 37.49 64.316 36.302 61.31 39.242C58.304 42.182 48.824 51.374 43.64 55.538C40.202 58.118 38.732 60.446 37.436 56.144C36.524 52.886 35.342 42.746 39.074 44.678C41.408 45.794 42.572 45.788 41.66 46.49C40.748 47.186 38.126 49.592 38.126 49.592C38.126 49.592 37.316 50.246 37.694 51.662C38.072 52.652 38.072 53.144 40.106 51.23C42.14 49.316 43.64 47.87 43.64 47.87C43.64 47.87 43.964 47.36 44.93 48.302C45.896 49.244 46.052 49.508 46.052 49.508C46.052 49.508 46.31 50.21 47.342 48.992C48.38 47.774 49.046 47.03 47.084 45.89C45.128 44.738 36.32 39.848 36.32 39.848V39.848Z" fill="white"/>
</svg>
