<?xml version="1.0" encoding="utf-8"?>
<!-- Generator: Adobe Illustrator 26.0.1, SVG Export Plug-In . SVG Version: 6.00 Build 0)  -->
<svg version="1.1" id="Layer_1" xmlns="http://www.w3.org/2000/svg" xmlns:xlink="http://www.w3.org/1999/xlink" x="0px" y="0px"
	 viewBox="0 0 60 60" enable-background="new 0 0 60 60" xml:space="preserve">
<path fill-rule="evenodd" clip-rule="evenodd" fill="#0055D5" d="M30,0c16.6,0,30,13.4,30,30S46.6,60,30,60S0,46.6,0,30S13.4,0,30,0
	L30,0z"/>
<path fill-rule="evenodd" clip-rule="evenodd" fill="#FFFFFF" d="M16.3,19.8c0,0-3.2-2.6-3.5,3.8c-0.2,4.9-0.2,14.5,2.1,19.1
	c1,1.7,2.3,1.2,4.7-0.5c2.1-1.5,9.6-8.5,12.8-11.6c3.2-3.1,9.7-11.8,11-5.9c0.5,2.5,1.2,4.6,0.7,10.2c-0.2,1.7-0.9,3-4.2,0.7
	C37.4,34,35,32.3,35,32.3s-0.5-0.8-1.6,0.5c-0.9,1.1-1.3,1.3,0.1,2.2c1.4,0.8,8.4,5.6,11,6.4c2.2,0.6,3.5,0.6,3.5-3.7
	c0-3.4-0.2-13.3-1.5-17.5c-0.9-2.6-2.3-3.8-5.3-0.9c-3,2.9-12.5,12.1-17.7,16.3c-3.4,2.6-4.9,4.9-6.2,0.6
	c-0.9-3.3-2.1-13.4,1.6-11.5c2.3,1.1,3.5,1.1,2.6,1.8c-0.9,0.7-3.5,3.1-3.5,3.1s-0.8,0.7-0.4,2.1c0.4,1,0.4,1.5,2.4-0.4
	c2-1.9,3.5-3.4,3.5-3.4s0.3-0.5,1.3,0.4c1,0.9,1.1,1.2,1.1,1.2s0.3,0.7,1.3-0.5c1-1.2,1.7-2-0.3-3.1C25.1,24.7,16.3,19.8,16.3,19.8
	L16.3,19.8z"/>
</svg>
