<svg width="743" height="296" viewBox="0 0 743 296" fill="none" xmlns="http://www.w3.org/2000/svg">
<g clip-path="url(#clip0_0_91)">
<g filter="url(#filter0_d_0_91)">
<rect y="20" width="743" height="276" rx="10" fill="white"/>
</g>
<path fill-rule="evenodd" clip-rule="evenodd" d="M148.279 238.742L222 190.465L291 238.742L323.623 203L386 181L448 140L502 148L547.5 90L590.487 140L642.111 145L670.581 88.5L708.5 53.5V252.5H36.5L148.279 238.742Z" fill="url(#paint0_linear_0_91)"/>
<path d="M36.5 252.5L148.279 238.742L222 190.465L291 238.742L323.623 203L386 181L448 140L502 148L547.5 90L590.487 140L642.111 145L670.581 88.5L706.5 53.5" stroke="#FF5D00" stroke-width="3" stroke-linecap="round" stroke-linejoin="bevel"/>
<path opacity="0.4" d="M20.5 49L20.5 271.5H721.5" stroke="#7C7C7C" stroke-linecap="square" stroke-dasharray="5"/>
<path opacity="0.4" d="M20.5 221.5H721.5" stroke="#7C7C7C" stroke-linecap="square" stroke-dasharray="5"/>
<path opacity="0.4" d="M20.5 171.5H721.5" stroke="#7C7C7C" stroke-linecap="square" stroke-dasharray="5"/>
<path opacity="0.4" d="M20.5 121.5H721.5" stroke="#7C7C7C" stroke-linecap="square" stroke-dasharray="5"/>
<path opacity="0.4" d="M20.5 71.5H721.5" stroke="#7C7C7C" stroke-linecap="square" stroke-dasharray="5"/>
<path d="M285.664 210.744C285.557 211.384 285.296 211.917 284.88 212.344C284.464 212.771 283.952 213.085 283.344 213.288C283.835 213.373 284.24 213.624 284.56 214.04C284.88 214.456 285.04 214.947 285.04 215.512C285.04 215.683 285.024 215.848 284.992 216.008C284.896 216.573 284.661 217.085 284.288 217.544C283.915 217.992 283.424 218.349 282.816 218.616C282.219 218.872 281.552 219 280.816 219H276.368L278.336 207.88H282.576C283.589 207.88 284.363 208.099 284.896 208.536C285.44 208.973 285.712 209.539 285.712 210.232C285.712 210.392 285.696 210.563 285.664 210.744ZM283.776 210.968C283.797 210.819 283.808 210.707 283.808 210.632C283.808 210.216 283.664 209.891 283.376 209.656C283.088 209.421 282.683 209.304 282.16 209.304H279.904L279.328 212.6H281.584C282.181 212.6 282.672 212.456 283.056 212.168C283.451 211.88 283.691 211.48 283.776 210.968ZM283.2 215.816C283.221 215.645 283.232 215.523 283.232 215.448C283.232 215.011 283.072 214.664 282.752 214.408C282.432 214.152 282.005 214.024 281.472 214.024H279.072L278.448 217.576H280.912C281.531 217.576 282.043 217.421 282.448 217.112C282.853 216.803 283.104 216.371 283.2 215.816ZM295.691 210.184L294.139 219H292.315L292.491 217.96C292.139 218.323 291.713 218.611 291.211 218.824C290.721 219.027 290.214 219.128 289.691 219.128C288.763 219.128 288.022 218.877 287.467 218.376C286.913 217.875 286.635 217.165 286.635 216.248C286.635 216.003 286.662 215.709 286.715 215.368L287.627 210.184H289.435L288.571 215.096C288.529 215.395 288.507 215.608 288.507 215.736C288.507 216.323 288.667 216.771 288.987 217.08C289.318 217.389 289.771 217.544 290.347 217.544C291.019 217.544 291.59 217.347 292.059 216.952C292.529 216.547 292.838 215.965 292.987 215.208L293.867 210.184H295.691ZM298.799 210.184L300.095 216.904L303.855 210.184H305.743L298.063 223.144H296.175L298.719 218.856L296.767 210.184H298.799Z" fill="#161616"/>
<path d="M538.4 72.112C537.717 72.112 537.104 72.0053 536.56 71.792C536.016 71.568 535.584 71.248 535.264 70.832C534.944 70.4053 534.784 69.904 534.784 69.328C534.784 69.2533 534.795 69.12 534.816 68.928H536.624C536.581 69.4187 536.725 69.8293 537.056 70.16C537.387 70.48 537.861 70.64 538.48 70.64C539.141 70.64 539.659 70.5067 540.032 70.24C540.405 69.9627 540.592 69.568 540.592 69.056C540.592 68.7467 540.496 68.4853 540.304 68.272C540.123 68.048 539.888 67.8613 539.6 67.712C539.323 67.5627 538.933 67.3867 538.432 67.184C537.771 66.9067 537.243 66.656 536.848 66.432C536.453 66.208 536.112 65.8987 535.824 65.504C535.547 65.1093 535.408 64.6133 535.408 64.016C535.408 63.3547 535.579 62.7787 535.92 62.288C536.261 61.7867 536.731 61.4027 537.328 61.136C537.936 60.8693 538.619 60.736 539.376 60.736C540.133 60.736 540.784 60.864 541.328 61.12C541.883 61.3653 542.299 61.7173 542.576 62.176C542.864 62.624 542.992 63.152 542.96 63.76H541.04C541.083 63.3227 540.949 62.96 540.64 62.672C540.331 62.3733 539.883 62.224 539.296 62.224C538.677 62.224 538.181 62.368 537.808 62.656C537.445 62.9333 537.264 63.312 537.264 63.792C537.264 64.0907 537.355 64.352 537.536 64.576C537.728 64.7893 537.968 64.976 538.256 65.136C538.544 65.2853 538.933 65.4667 539.424 65.68C540.085 65.9787 540.613 66.2453 541.008 66.48C541.413 66.7147 541.76 67.0347 542.048 67.44C542.336 67.8347 542.48 68.3253 542.48 68.912C542.48 69.5307 542.309 70.0853 541.968 70.576C541.627 71.056 541.147 71.4347 540.528 71.712C539.909 71.9787 539.2 72.112 538.4 72.112ZM549.031 63.04C550.13 63.04 551.005 63.3493 551.655 63.968C552.317 64.5867 552.647 65.4187 552.647 66.464C552.647 66.7093 552.621 67.0027 552.567 67.344C552.525 67.5787 552.45 67.8667 552.343 68.208H545.607C545.597 68.2827 545.591 68.3947 545.591 68.544C545.591 69.1733 545.783 69.6747 546.167 70.048C546.562 70.4213 547.074 70.608 547.703 70.608C548.695 70.608 549.458 70.1973 549.991 69.376H551.959C551.554 70.1867 550.957 70.8533 550.167 71.376C549.378 71.888 548.466 72.144 547.431 72.144C546.695 72.144 546.05 72 545.495 71.712C544.941 71.424 544.509 71.0133 544.199 70.48C543.89 69.936 543.735 69.3013 543.735 68.576C543.735 68.2667 543.767 67.936 543.831 67.584C543.991 66.6773 544.317 65.8827 544.807 65.2C545.298 64.5067 545.906 63.9733 546.631 63.6C547.367 63.2267 548.167 63.04 549.031 63.04ZM550.743 66.896C550.765 66.704 550.775 66.5653 550.775 66.48C550.775 65.8933 550.578 65.4293 550.183 65.088C549.799 64.7467 549.298 64.576 548.679 64.576C548.029 64.576 547.442 64.784 546.919 65.2C546.397 65.616 546.039 66.1813 545.847 66.896H550.743ZM557.159 60.16L555.063 72H553.239L555.335 60.16H557.159ZM561.087 60.16L558.991 72H557.167L559.263 60.16H561.087Z" fill="#161616"/>
<path d="M695.4 40.112C694.717 40.112 694.104 40.0053 693.56 39.792C693.016 39.568 692.584 39.248 692.264 38.832C691.944 38.4053 691.784 37.904 691.784 37.328C691.784 37.2533 691.795 37.12 691.816 36.928H693.624C693.581 37.4187 693.725 37.8293 694.056 38.16C694.387 38.48 694.861 38.64 695.48 38.64C696.141 38.64 696.659 38.5067 697.032 38.24C697.405 37.9627 697.592 37.568 697.592 37.056C697.592 36.7467 697.496 36.4853 697.304 36.272C697.123 36.048 696.888 35.8613 696.6 35.712C696.323 35.5627 695.933 35.3867 695.432 35.184C694.771 34.9067 694.243 34.656 693.848 34.432C693.453 34.208 693.112 33.8987 692.824 33.504C692.547 33.1093 692.408 32.6133 692.408 32.016C692.408 31.3547 692.579 30.7787 692.92 30.288C693.261 29.7867 693.731 29.4027 694.328 29.136C694.936 28.8693 695.619 28.736 696.376 28.736C697.133 28.736 697.784 28.864 698.328 29.12C698.883 29.3653 699.299 29.7173 699.576 30.176C699.864 30.624 699.992 31.152 699.96 31.76H698.04C698.083 31.3227 697.949 30.96 697.64 30.672C697.331 30.3733 696.883 30.224 696.296 30.224C695.677 30.224 695.181 30.368 694.808 30.656C694.445 30.9333 694.264 31.312 694.264 31.792C694.264 32.0907 694.355 32.352 694.536 32.576C694.728 32.7893 694.968 32.976 695.256 33.136C695.544 33.2853 695.933 33.4667 696.424 33.68C697.085 33.9787 697.613 34.2453 698.008 34.48C698.413 34.7147 698.76 35.0347 699.048 35.44C699.336 35.8347 699.48 36.3253 699.48 36.912C699.48 37.5307 699.309 38.0853 698.968 38.576C698.627 39.056 698.147 39.4347 697.528 39.712C696.909 39.9787 696.2 40.112 695.4 40.112ZM706.031 31.04C707.13 31.04 708.005 31.3493 708.655 31.968C709.317 32.5867 709.647 33.4187 709.647 34.464C709.647 34.7093 709.621 35.0027 709.567 35.344C709.525 35.5787 709.45 35.8667 709.343 36.208H702.607C702.597 36.2827 702.591 36.3947 702.591 36.544C702.591 37.1733 702.783 37.6747 703.167 38.048C703.562 38.4213 704.074 38.608 704.703 38.608C705.695 38.608 706.458 38.1973 706.991 37.376H708.959C708.554 38.1867 707.957 38.8533 707.167 39.376C706.378 39.888 705.466 40.144 704.431 40.144C703.695 40.144 703.05 40 702.495 39.712C701.941 39.424 701.509 39.0133 701.199 38.48C700.89 37.936 700.735 37.3013 700.735 36.576C700.735 36.2667 700.767 35.936 700.831 35.584C700.991 34.6773 701.317 33.8827 701.807 33.2C702.298 32.5067 702.906 31.9733 703.631 31.6C704.367 31.2267 705.167 31.04 706.031 31.04ZM707.743 34.896C707.765 34.704 707.775 34.5653 707.775 34.48C707.775 33.8933 707.578 33.4293 707.183 33.088C706.799 32.7467 706.298 32.576 705.679 32.576C705.029 32.576 704.442 32.784 703.919 33.2C703.397 33.616 703.039 34.1813 702.847 34.896H707.743ZM714.159 28.16L712.063 40H710.239L712.335 28.16H714.159ZM718.087 28.16L715.991 40H714.167L716.263 28.16H718.087Z" fill="#161616"/>
<path d="M630.664 118.744C630.557 119.384 630.296 119.917 629.88 120.344C629.464 120.771 628.952 121.085 628.344 121.288C628.835 121.373 629.24 121.624 629.56 122.04C629.88 122.456 630.04 122.947 630.04 123.512C630.04 123.683 630.024 123.848 629.992 124.008C629.896 124.573 629.661 125.085 629.288 125.544C628.915 125.992 628.424 126.349 627.816 126.616C627.219 126.872 626.552 127 625.816 127H621.368L623.336 115.88H627.576C628.589 115.88 629.363 116.099 629.896 116.536C630.44 116.973 630.712 117.539 630.712 118.232C630.712 118.392 630.696 118.563 630.664 118.744ZM628.776 118.968C628.797 118.819 628.808 118.707 628.808 118.632C628.808 118.216 628.664 117.891 628.376 117.656C628.088 117.421 627.683 117.304 627.16 117.304H624.904L624.328 120.6H626.584C627.181 120.6 627.672 120.456 628.056 120.168C628.451 119.88 628.691 119.48 628.776 118.968ZM628.2 123.816C628.221 123.645 628.232 123.523 628.232 123.448C628.232 123.011 628.072 122.664 627.752 122.408C627.432 122.152 627.005 122.024 626.472 122.024H624.072L623.448 125.576H625.912C626.531 125.576 627.043 125.421 627.448 125.112C627.853 124.803 628.104 124.371 628.2 123.816ZM640.691 118.184L639.139 127H637.315L637.491 125.96C637.139 126.323 636.713 126.611 636.211 126.824C635.721 127.027 635.214 127.128 634.691 127.128C633.763 127.128 633.022 126.877 632.467 126.376C631.913 125.875 631.635 125.165 631.635 124.248C631.635 124.003 631.662 123.709 631.715 123.368L632.627 118.184H634.435L633.571 123.096C633.529 123.395 633.507 123.608 633.507 123.736C633.507 124.323 633.667 124.771 633.987 125.08C634.318 125.389 634.771 125.544 635.347 125.544C636.019 125.544 636.59 125.347 637.059 124.952C637.529 124.547 637.838 123.965 637.987 123.208L638.867 118.184H640.691ZM643.799 118.184L645.095 124.904L648.855 118.184H650.743L643.063 131.144H641.175L643.719 126.856L641.767 118.184H643.799Z" fill="#161616"/>
<circle cx="290.5" cy="235.5" r="8.5" fill="#FFA700"/>
<circle cx="548.5" cy="88.5" r="8.5" fill="#44BB76"/>
<circle cx="704.5" cy="56.5" r="8.5" fill="#44BB76"/>
<circle cx="635.5" cy="143.5" r="8.5" fill="#FFA700"/>
<path fill-rule="evenodd" clip-rule="evenodd" d="M48 8C48 3.58172 51.5817 0 56 0H485C489.418 0 493 3.58172 493 8V77C493 81.4183 489.418 85 485 85H99.1121L79.5545 104V85H56C51.5817 85 48 81.4183 48 77V8Z" fill="#283CD8"/>
</g>
<defs>
<filter id="filter0_d_0_91" x="-6" y="16" width="755" height="288" filterUnits="userSpaceOnUse" color-interpolation-filters="sRGB">
<feFlood flood-opacity="0" result="BackgroundImageFix"/>
<feColorMatrix in="SourceAlpha" type="matrix" values="0 0 0 0 0 0 0 0 0 0 0 0 0 0 0 0 0 0 127 0" result="hardAlpha"/>
<feOffset dy="2"/>
<feGaussianBlur stdDeviation="3"/>
<feColorMatrix type="matrix" values="0 0 0 0 0 0 0 0 0 0 0 0 0 0 0 0 0 0 0.2 0"/>
<feBlend mode="normal" in2="BackgroundImageFix" result="effect1_dropShadow_0_91"/>
<feBlend mode="normal" in="SourceGraphic" in2="effect1_dropShadow_0_91" result="shape"/>
</filter>
<linearGradient id="paint0_linear_0_91" x1="37.6129" y1="53.5" x2="37.6129" y2="251.841" gradientUnits="userSpaceOnUse">
<stop stop-color="#FF5D00"/>
<stop offset="1" stop-color="white" stop-opacity="0.01"/>
</linearGradient>
<clipPath id="clip0_0_91">
<rect width="743" height="296" fill="white"/>
</clipPath>
</defs>
</svg>
